ffmpeg started on 2025-05-28 at 11:32:14
Report written to "D:\Convert\FFMetrics\reports\ssim_report-6.txt"
Log level: 32
Command line:
ffmpeg -hide_banner -nostdin -i "G:\\\xc0\xed\xe8\xec\xe5\\\xce\xed\xe3\xee\xe8\xed\xe3\xe8\\!_36_\xce\xf1\xe5\xed\xfc_2024\\JamClub\\SAO\\\xc0\xeb\xfc\xf2\xe5\xf0\xed\xe0\xf2\xe8\xe2\xed\xe0\xff \xab\xcf\xf0\xe8\xe7\xf0\xe0\xf7\xed\xe0\xff \xef\xf3\xeb\xff\xbb\\\xd2\xc2-2\\JamClub_Sword_Art_Online_Alternative_Gun_Gale_Online_II_05_1080p_HEVC.mkv" -i "G:\\\xc0\xed\xe8\xec\xe5\\\xce\xed\xe3\xee\xe8\xed\xe3\xe8\\!_36_\xce\xf1\xe5\xed\xfc_2024\\JamClub\\SAO\\\xc0\xeb\xfc\xf2\xe5\xf0\xed\xe0\xf2\xe8\xe2\xed\xe0\xff \xab\xcf\xf0\xe8\xe7\xf0\xe0\xf7\xed\xe0\xff \xef\xf3\xeb\xff\xbb\\\xd2\xc2-2\\JamClub_Sword_Art_Online_Alternative_Gun_Gale_Online_II_05_1080p.mp4" -lavfi "[0:v]settb=AVTB,setpts=PTS-STARTPTS,format=pix_fmts=yuv420p10,fps=24000/1001,scale=1920:1080:flags=bicubic[main];[1:v]settb=AVTB,setpts=PTS-STARTPTS,format=pix_fmts=yuv420p,fps=24000/1001,scale=1920:1080:flags=bicubic[ref];[main][ref]ssim=eof_action=endall:stats_file='D\\:/Convert/FFMetrics/logs/ssim_logfile-6.txt'" -f null -
Input #0, matroska,webm, from 'G:\Аниме\Онгоинги\!_36_Осень_2024\JamClub\SAO\Альтернативная «Призрачная пуля»\ТВ-2\JamClub_Sword_Art_Online_Alternative_Gun_Gale_Online_II_05_1080p_HEVC.mkv':
  Metadata:
    COMPATIBLE_BRANDS: isomiso2avc1mp41
    MAJOR_BRAND     : isom
    MINOR_VERSION   : 512
    ENCODER         : Lavf61.7.100
  Duration: 00:24:02.31, start: -0.001000, bitrate: 1242 kb/s
  Stream #0:0: Video: hevc (Main 10), yuv420p10le(tv, bt709, progressive), 1920x1080 [SAR 1:1 DAR 16:9], 23.98 fps, 23.98 tbr, 1k tbn (default)
      Metadata:
        HANDLER_NAME    : VideoHandler
        VENDOR_ID       : [0][0][0][0]
        ENCODER         : Lavc61.19.100 libx265
        BPS             : 1044960
        DURATION        : 00:24:02.232708333
        NUMBER_OF_FRAMES: 34579
        NUMBER_OF_BYTES : 188384362
        _STATISTICS_WRITING_APP: mkvpropedit v66.0.0 ('Josie') 64-bit
        _STATISTICS_WRITING_DATE_UTC: 2025-05-27 15:52:38
        _STATISTICS_TAGS: BPS DURATION NUMBER_OF_FRAMES NUMBER_OF_BYTES
  Stream #0:1(eng): Audio: aac (LC), 48000 Hz, stereo, fltp (default)
      Metadata:
        HANDLER_NAME    : SoundHandler
        VENDOR_ID       : [0][0][0][0]
        ENCODER         : Lavc61.19.100 aac
        BPS             : 193550
        DURATION        : 00:24:02.264000000
        NUMBER_OF_FRAMES: 67607
        NUMBER_OF_BYTES : 34893870
        _STATISTICS_WRITING_APP: mkvpropedit v66.0.0 ('Josie') 64-bit
        _STATISTICS_WRITING_DATE_UTC: 2025-05-27 15:52:38
        _STATISTICS_TAGS: BPS DURATION NUMBER_OF_FRAMES NUMBER_OF_BYTES
Input #1, mov,mp4,m4a,3gp,3g2,mj2, from 'G:\Аниме\Онгоинги\!_36_Осень_2024\JamClub\SAO\Альтернативная «Призрачная пуля»\ТВ-2\JamClub_Sword_Art_Online_Alternative_Gun_Gale_Online_II_05_1080p.mp4':
  Metadata:
    major_brand     : isom
    minor_version   : 512
    compatible_brands: isomiso2avc1mp41
    encoder         : Lavf60.16.100
  Duration: 00:24:02.28, start: 0.000000, bitrate: 4766 kb/s
  Stream #1:0[0x1](und): Video: h264 (High) (avc1 / 0x31637661), yuv420p(progressive), 1920x1080 [SAR 1:1 DAR 16:9], 4568 kb/s, 23.98 fps, 23.98 tbr, 90k tbn (default)
      Metadata:
        handler_name    : VideoHandler
        vendor_id       : [0][0][0][0]
  Stream #1:1[0x2](eng): Audio: aac (LC) (mp4a / 0x6134706D), 48000 Hz, stereo, fltp, 191 kb/s (default)
      Metadata:
        handler_name    : SoundHandler
        vendor_id       : [0][0][0][0]
Stream mapping:
  Stream #0:0 (hevc) -> settb:default
  Stream #1:0 (h264) -> settb:default
  ssim:default -> Stream #0:0 (wrapped_avframe)
  Stream #0:1 -> #0:1 (aac (native) -> pcm_s16le (native))
Output #0, null, to 'pipe:':
  Metadata:
    COMPATIBLE_BRANDS: isomiso2avc1mp41
    MAJOR_BRAND     : isom
    MINOR_VERSION   : 512
    encoder         : Lavf61.7.100
  Stream #0:0: Video: wrapped_avframe, yuv420p10le(tv, bt709, progressive), 1920x1080 [SAR 1:1 DAR 16:9], q=2-31, 200 kb/s, 23.98 fps, 23.98 tbn
      Metadata:
        encoder         : Lavc61.19.100 wrapped_avframe
  Stream #0:1(eng): Audio: pcm_s16le, 48000 Hz, stereo, s16, 1536 kb/s (default)
      Metadata:
        HANDLER_NAME    : SoundHandler
        VENDOR_ID       : [0][0][0][0]
        _STATISTICS_TAGS: BPS DURATION NUMBER_OF_FRAMES NUMBER_OF_BYTES
        BPS             : 193550
        DURATION        : 00:24:02.264000000
        NUMBER_OF_FRAMES: 67607
        NUMBER_OF_BYTES : 34893870
        _STATISTICS_WRITING_APP: mkvpropedit v66.0.0 ('Josie') 64-bit
        _STATISTICS_WRITING_DATE_UTC: 2025-05-27 15:52:38
        encoder         : Lavc61.19.100 pcm_s16le
frame=  113 fps=0.0 q=-0.0 size=N/A time=00:00:04.71 bitrate=N/A speed=9.13x    frame=  269 fps=262 q=-0.0 size=N/A time=00:00:11.21 bitrate=N/A speed=10.9x    frame=  462 fps=298 q=-0.0 size=N/A time=00:00:19.26 bitrate=N/A speed=12.4x    frame=  694 fps=337 q=-0.0 size=N/A time=00:00:28.94 bitrate=N/A speed=14.1x    frame=  932 fps=361 q=-0.0 size=N/A time=00:00:38.87 bitrate=N/A speed=15.1x    frame= 1180 fps=382 q=-0.0 size=N/A time=00:00:49.21 bitrate=N/A speed=15.9x    frame= 1410 fps=391 q=-0.0 size=N/A time=00:00:58.80 bitrate=N/A speed=16.3x    frame= 1680 fps=408 q=-0.0 size=N/A time=00:01:10.07 bitrate=N/A speed=  17x    frame= 1936 fps=418 q=-0.0 size=N/A time=00:01:20.74 bitrate=N/A speed=17.4x    frame= 2159 fps=418 q=-0.0 size=N/A time=00:01:30.04 bitrate=N/A speed=17.5x    frame= 2363 fps=417 q=-0.0 size=N/A time=00:01:38.55 bitrate=N/A speed=17.4x    frame= 2597 fps=420 q=-0.0 size=N/A time=00:01:48.31 bitrate=N/A speed=17.5x    frame= 2808 fps=419 q=-0.0 size=N/A time=00:01:57.11 bitrate=N/A speed=17.5x    frame= 2994 fps=415 q=-0.0 size=N/A time=00:02:04.87 bitrate=N/A speed=17.3x    frame= 3167 fps=410 q=-0.0 size=N/A time=00:02:12.09 bitrate=N/A speed=17.1x    frame= 3327 fps=403 q=-0.0 size=N/A time=00:02:18.76 bitrate=N/A speed=16.8x    frame= 3477 fps=397 q=-0.0 size=N/A time=00:02:25.01 bitrate=N/A speed=16.6x    frame= 3676 fps=396 q=-0.0 size=N/A time=00:02:33.31 bitrate=N/A speed=16.5x    frame= 3836 fps=392 q=-0.0 size=N/A time=00:02:39.99 bitrate=N/A speed=16.3x    frame= 4008 fps=389 q=-0.0 size=N/A time=00:02:47.16 bitrate=N/A speed=16.2x    frame= 4206 fps=389 q=-0.0 size=N/A time=00:02:55.42 bitrate=N/A speed=16.2x    frame= 4449 fps=392 q=-0.0 size=N/A time=00:03:05.56 bitrate=N/A speed=16.4x    frame= 4667 fps=394 q=-0.0 size=N/A time=00:03:14.65 bitrate=N/A speed=16.4x    frame= 4935 fps=399 q=-0.0 size=N/A time=00:03:25.83 bitrate=N/A speed=16.6x    frame= 5128 fps=398 q=-0.0 size=N/A time=00:03:33.88 bitrate=N/A speed=16.6x    frame= 5316 fps=396 q=-0.0 size=N/A time=00:03:41.72 bitrate=N/A speed=16.5x    frame= 5563 fps=400 q=-0.0 size=N/A time=00:03:52.02 bitrate=N/A speed=16.7x    frame= 5816 fps=403 q=-0.0 size=N/A time=00:04:02.57 bitrate=N/A speed=16.8x    frame= 6084 fps=407 q=-0.0 size=N/A time=00:04:13.75 bitrate=N/A speed=  17x    frame= 6344 fps=410 q=-0.0 size=N/A time=00:04:24.59 bitrate=N/A speed=17.1x    frame= 6582 fps=412 q=-0.0 size=N/A time=00:04:34.52 bitrate=N/A speed=17.2x    frame= 6825 fps=414 q=-0.0 size=N/A time=00:04:44.65 bitrate=N/A speed=17.3x    frame= 7070 fps=416 q=-0.0 size=N/A time=00:04:54.87 bitrate=N/A speed=17.3x    frame= 7316 fps=417 q=-0.0 size=N/A time=00:05:05.13 bitrate=N/A speed=17.4x    frame= 7551 fps=419 q=-0.0 size=N/A time=00:05:14.93 bitrate=N/A speed=17.5x    frame= 7803 fps=420 q=-0.0 size=N/A time=00:05:25.45 bitrate=N/A speed=17.5x    frame= 8069 fps=423 q=-0.0 size=N/A time=00:05:36.54 bitrate=N/A speed=17.6x    frame= 8336 fps=425 q=-0.0 size=N/A time=00:05:47.68 bitrate=N/A speed=17.7x    frame= 8596 fps=427 q=-0.0 size=N/A time=00:05:58.52 bitrate=N/A speed=17.8x    frame= 8855 fps=429 q=-0.0 size=N/A time=00:06:09.32 bitrate=N/A speed=17.9x    frame= 9116 fps=431 q=-0.0 size=N/A time=00:06:20.21 bitrate=N/A speed=  18x    frame= 9372 fps=433 q=-0.0 size=N/A time=00:06:30.89 bitrate=N/A speed=18.1x    frame= 9611 fps=433 q=-0.0 size=N/A time=00:06:40.85 bitrate=N/A speed=18.1x    frame= 9830 fps=433 q=-0.0 size=N/A time=00:06:49.99 bitrate=N/A speed=18.1x    frame=10060 fps=433 q=-0.0 size=N/A time=00:06:59.58 bitrate=N/A speed=18.1x    frame=10309 fps=434 q=-0.0 size=N/A time=00:07:09.97 bitrate=N/A speed=18.1x    frame=10582 fps=436 q=-0.0 size=N/A time=00:07:21.35 bitrate=N/A speed=18.2x    frame=10840 fps=438 q=-0.0 size=N/A time=00:07:32.11 bitrate=N/A speed=18.3x    frame=11076 fps=438 q=-0.0 size=N/A time=00:07:41.96 bitrate=N/A speed=18.3x    frame=11306 fps=438 q=-0.0 size=N/A time=00:07:51.55 bitrate=N/A speed=18.3x    frame=11560 fps=439 q=-0.0 size=N/A time=00:08:02.14 bitrate=N/A speed=18.3x    frame=11818 fps=441 q=-0.0 size=N/A time=00:08:12.90 bitrate=N/A speed=18.4x    frame=12067 fps=441 q=-0.0 size=N/A time=00:08:23.29 bitrate=N/A speed=18.4x    frame=12268 fps=440 q=-0.0 size=N/A time=00:08:31.67 bitrate=N/A speed=18.4x    frame=12380 fps=436 q=-0.0 size=N/A time=00:08:36.34 bitrate=N/A speed=18.2x    frame=12607 fps=436 q=-0.0 size=N/A time=00:08:45.81 bitrate=N/A speed=18.2x    frame=12887 fps=438 q=-0.0 size=N/A time=00:08:57.49 bitrate=N/A speed=18.3x    frame=13133 fps=439 q=-0.0 size=N/A time=00:09:07.75 bitrate=N/A speed=18.3x    frame=13346 fps=439 q=-0.0 size=N/A time=00:09:16.63 bitrate=N/A speed=18.3x    frame=13556 fps=438 q=-0.0 size=N/A time=00:09:25.39 bitrate=N/A speed=18.3x    frame=13786 fps=438 q=-0.0 size=N/A time=00:09:34.99 bitrate=N/A speed=18.3x    frame=14049 fps=439 q=-0.0 size=N/A time=00:09:45.96 bitrate=N/A speed=18.3x    frame=14307 fps=440 q=-0.0 size=N/A time=00:09:56.72 bitrate=N/A speed=18.4x    frame=14544 fps=441 q=-0.0 size=N/A time=00:10:06.60 bitrate=N/A speed=18.4x    frame=14811 fps=442 q=-0.0 size=N/A time=00:10:17.74 bitrate=N/A speed=18.4x    frame=15044 fps=442 q=-0.0 size=N/A time=00:10:27.46 bitrate=N/A speed=18.4x    frame=15285 fps=442 q=-0.0 size=N/A time=00:10:37.51 bitrate=N/A speed=18.4x    frame=15521 fps=443 q=-0.0 size=N/A time=00:10:47.35 bitrate=N/A speed=18.5x    frame=15728 fps=442 q=-0.0 size=N/A time=00:10:55.98 bitrate=N/A speed=18.4x    frame=15951 fps=442 q=-0.0 size=N/A time=00:11:05.28 bitrate=N/A speed=18.4x    frame=16191 fps=442 q=-0.0 size=N/A time=00:11:15.29 bitrate=N/A speed=18.4x    frame=16449 fps=443 q=-0.0 size=N/A time=00:11:26.06 bitrate=N/A speed=18.5x    frame=16680 fps=443 q=-0.0 size=N/A time=00:11:35.69 bitrate=N/A speed=18.5x    frame=16927 fps=443 q=-0.0 size=N/A time=00:11:45.99 bitrate=N/A speed=18.5x    frame=17180 fps=444 q=-0.0 size=N/A time=00:11:56.54 bitrate=N/A speed=18.5x    frame=17403 fps=444 q=-0.0 size=N/A time=00:12:05.85 bitrate=N/A speed=18.5x    frame=17648 fps=444 q=-0.0 size=N/A time=00:12:16.06 bitrate=N/A speed=18.5x    frame=17843 fps=443 q=-0.0 size=N/A time=00:12:24.20 bitrate=N/A speed=18.5x    frame=18026 fps=442 q=-0.0 size=N/A time=00:12:31.83 bitrate=N/A speed=18.5x    frame=18244 fps=442 q=-0.0 size=N/A time=00:12:40.92 bitrate=N/A speed=18.4x    frame=18470 fps=442 q=-0.0 size=N/A time=00:12:50.35 bitrate=N/A speed=18.4x    frame=18692 fps=442 q=-0.0 size=N/A time=00:12:59.61 bitrate=N/A speed=18.4x    frame=18908 fps=442 q=-0.0 size=N/A time=00:13:08.62 bitrate=N/A speed=18.4x    frame=19130 fps=442 q=-0.0 size=N/A time=00:13:17.88 bitrate=N/A speed=18.4x    frame=19364 fps=442 q=-0.0 size=N/A time=00:13:27.64 bitrate=N/A speed=18.4x    frame=19596 fps=442 q=-0.0 size=N/A time=00:13:37.31 bitrate=N/A speed=18.4x    frame=19832 fps=442 q=-0.0 size=N/A time=00:13:47.15 bitrate=N/A speed=18.4x    frame=20049 fps=442 q=-0.0 size=N/A time=00:13:56.21 bitrate=N/A speed=18.4x    frame=20248 fps=441 q=-0.0 size=N/A time=00:14:04.51 bitrate=N/A speed=18.4x    frame=20452 fps=441 q=-0.0 size=N/A time=00:14:13.01 bitrate=N/A speed=18.4x    frame=20681 fps=441 q=-0.0 size=N/A time=00:14:22.57 bitrate=N/A speed=18.4x    frame=20892 fps=440 q=-0.0 size=N/A time=00:14:31.37 bitrate=N/A speed=18.4x    frame=21114 fps=440 q=-0.0 size=N/A time=00:14:40.62 bitrate=N/A speed=18.4x    frame=21374 fps=441 q=-0.0 size=N/A time=00:14:51.47 bitrate=N/A speed=18.4x    frame=21623 fps=441 q=-0.0 size=N/A time=00:15:01.85 bitrate=N/A speed=18.4x    frame=21899 fps=442 q=-0.0 size=N/A time=00:15:13.37 bitrate=N/A speed=18.4x    frame=22156 fps=443 q=-0.0 size=N/A time=00:15:24.08 bitrate=N/A speed=18.5x    frame=22423 fps=444 q=-0.0 size=N/A time=00:15:35.22 bitrate=N/A speed=18.5x    frame=22660 fps=444 q=-0.0 size=N/A time=00:15:45.11 bitrate=N/A speed=18.5x    frame=22931 fps=445 q=-0.0 size=N/A time=00:15:56.41 bitrate=N/A speed=18.5x    frame=23198 fps=445 q=-0.0 size=N/A time=00:16:07.54 bitrate=N/A speed=18.6x    frame=23481 fps=446 q=-0.0 size=N/A time=00:16:19.35 bitrate=N/A speed=18.6x    frame=23765 fps=447 q=-0.0 size=N/A time=00:16:31.19 bitrate=N/A speed=18.7x    frame=24039 fps=448 q=-0.0 size=N/A time=00:16:42.62 bitrate=N/A speed=18.7x    frame=24309 fps=449 q=-0.0 size=N/A time=00:16:53.88 bitrate=N/A speed=18.7x    frame=24571 fps=449 q=-0.0 size=N/A time=00:17:04.81 bitrate=N/A speed=18.7x    frame=24823 fps=450 q=-0.0 size=N/A time=00:17:15.32 bitrate=N/A speed=18.8x    frame=25080 fps=450 q=-0.0 size=N/A time=00:17:26.04 bitrate=N/A speed=18.8x    frame=25328 fps=451 q=-0.0 size=N/A time=00:17:36.38 bitrate=N/A speed=18.8x    frame=25601 fps=451 q=-0.0 size=N/A time=00:17:47.77 bitrate=N/A speed=18.8x    frame=25874 fps=452 q=-0.0 size=N/A time=00:17:59.16 bitrate=N/A speed=18.8x    frame=26138 fps=452 q=-0.0 size=N/A time=00:18:10.17 bitrate=N/A speed=18.9x    frame=26404 fps=453 q=-0.0 size=N/A time=00:18:21.26 bitrate=N/A speed=18.9x    frame=26663 fps=453 q=-0.0 size=N/A time=00:18:32.06 bitrate=N/A speed=18.9x    frame=26926 fps=454 q=-0.0 size=N/A time=00:18:43.03 bitrate=N/A speed=18.9x    frame=27154 fps=454 q=-0.0 size=N/A time=00:18:52.54 bitrate=N/A speed=18.9x    frame=27433 fps=454 q=-0.0 size=N/A time=00:19:04.18 bitrate=N/A speed=18.9x    frame=27695 fps=455 q=-0.0 size=N/A time=00:19:15.11 bitrate=N/A speed=  19x    frame=27965 fps=455 q=-0.0 size=N/A time=00:19:26.37 bitrate=N/A speed=  19x    frame=28217 fps=456 q=-0.0 size=N/A time=00:19:36.88 bitrate=N/A speed=  19x    frame=28469 fps=456 q=-0.0 size=N/A time=00:19:47.39 bitrate=N/A speed=  19x    frame=28722 fps=456 q=-0.0 size=N/A time=00:19:57.94 bitrate=N/A speed=  19x    frame=28979 fps=456 q=-0.0 size=N/A time=00:20:08.66 bitrate=N/A speed=  19x    frame=29224 fps=457 q=-0.0 size=N/A time=00:20:18.88 bitrate=N/A speed=  19x    frame=29423 fps=456 q=-0.0 size=N/A time=00:20:27.18 bitrate=N/A speed=  19x    frame=29654 fps=456 q=-0.0 size=N/A time=00:20:36.81 bitrate=N/A speed=  19x    frame=29840 fps=455 q=-0.0 size=N/A time=00:20:44.57 bitrate=N/A speed=  19x    frame=30111 fps=456 q=-0.0 size=N/A time=00:20:55.87 bitrate=N/A speed=  19x    frame=30370 fps=456 q=-0.0 size=N/A time=00:21:06.68 bitrate=N/A speed=  19x    frame=30618 fps=456 q=-0.0 size=N/A time=00:21:17.02 bitrate=N/A speed=  19x    frame=30852 fps=456 q=-0.0 size=N/A time=00:21:26.78 bitrate=N/A speed=  19x    frame=31079 fps=456 q=-0.0 size=N/A time=00:21:36.25 bitrate=N/A speed=  19x    frame=31321 fps=456 q=-0.0 size=N/A time=00:21:46.34 bitrate=N/A speed=  19x    frame=31547 fps=456 q=-0.0 size=N/A time=00:21:55.77 bitrate=N/A speed=  19x    frame=31798 fps=456 q=-0.0 size=N/A time=00:22:06.24 bitrate=N/A speed=  19x    frame=32025 fps=456 q=-0.0 size=N/A time=00:22:15.70 bitrate=N/A speed=  19x    frame=32281 fps=457 q=-0.0 size=N/A time=00:22:26.38 bitrate=N/A speed=  19x    frame=32543 fps=457 q=-0.0 size=N/A time=00:22:37.31 bitrate=N/A speed=19.1x    frame=32790 fps=457 q=-0.0 size=N/A time=00:22:47.61 bitrate=N/A speed=19.1x    frame=32996 fps=457 q=-0.0 size=N/A time=00:22:56.20 bitrate=N/A speed=  19x    frame=33174 fps=456 q=-0.0 size=N/A time=00:23:03.63 bitrate=N/A speed=  19x    frame=33402 fps=456 q=-0.0 size=N/A time=00:23:13.14 bitrate=N/A speed=  19x    frame=33646 fps=456 q=-0.0 size=N/A time=00:23:23.31 bitrate=N/A speed=  19x    frame=33831 fps=455 q=-0.0 size=N/A time=00:23:31.03 bitrate=N/A speed=  19x    frame=34047 fps=455 q=-0.0 size=N/A time=00:23:40.04 bitrate=N/A speed=  19x    frame=34304 fps=455 q=-0.0 size=N/A time=00:23:50.76 bitrate=N/A speed=  19x    frame=34526 fps=455 q=-0.0 size=N/A time=00:24:00.02 bitrate=N/A speed=  19x    [Parsed_ssim_10 @ 000002249e9b1ec0] SSIM Y:0.992719 (21.378160) U:0.992763 (21.404246) V:0.992707 (21.370943) All:0.992724 (21.381292)
[out#0/null @ 000002249e9dfc40] video:14858KiB audio:270428KiB subtitle:0KiB other streams:0KiB global headers:0KiB muxing overhead: unknown
frame=34579 fps=455 q=-0.0 Lsize=N/A time=00:24:02.23 bitrate=N/A speed=  19x    
